<?xml version="1.0" encoding="utf-8" standalone="no"?>
<!DOCTYPE svg PUBLIC "-//W3C//DTD SVG 1.1//EN"
  "http://www.w3.org/Graphics/SVG/1.1/DTD/svg11.dtd">
<svg height="432pt" version="1.1" viewBox="0 0 720 432" width="720pt" xmlns="http://www.w3.org/2000/svg" xmlns:xlink="http://www.w3.org/1999/xlink">
 <metadata>
  <rdf:RDF xmlns:cc="http://creativecommons.org/ns#" xmlns:dc="http://purl.org/dc/elements/1.1/" xmlns:rdf="http://www.w3.org/1999/02/22-rdf-syntax-ns#">
   <cc:Work>
    <dc:type rdf:resource="http://purl.org/dc/dcmitype/StillImage"/>
    <dc:date>2021-06-11T09:47:20.589016</dc:date>
    <dc:format>image/svg+xml</dc:format>
    <dc:creator>
     <cc:Agent>
      <dc:title>Matplotlib v3.4.2, https://matplotlib.org/</dc:title>
     </cc:Agent>
    </dc:creator>
   </cc:Work>
  </rdf:RDF>
 </metadata>
 <defs>
  <style type="text/css">*{stroke-linecap:butt;stroke-linejoin:round;}</style>
 </defs>
 <g id="figure_1">
  <g id="patch_1">
   <path d="M 0 432
L 720 432
L 720 0
L 0 0
z
" style="fill:#ffffff;"/>
  </g>
  <g id="axes_1">
   <g id="patch_2">
    <path d="M 45.94399 398.64351
L 359.041081 398.64351
L 359.041081 3.00024
L 45.94399 3.00024
z
" style="fill:#ffffff;"/>
   </g>
   <g id="PolyCollection_1">
    <defs>
     <path d="M 60.175676 -411.015975
L 60.175676 -88.957915
L 63.050764 -87.867781
L 65.925852 -86.799895
L 68.80094 -85.754257
L 71.676028 -84.730867
L 74.551116 -83.785523
L 77.426204 -82.966861
L 80.301293 -82.166804
L 83.176381 -81.698231
L 86.051469 -81.451787
L 88.926557 -81.211353
L 91.801645 -80.745404
L 94.676733 -80.045058
L 97.551821 -79.408098
L 100.426909 -78.890179
L 103.301997 -78.386646
L 106.177085 -77.8975
L 109.052173 -77.42274
L 111.927261 -76.493502
L 114.802349 -75.058017
L 117.677437 -73.73647
L 120.552526 -72.47525
L 123.427614 -71.45402
L 126.302702 -70.857629
L 129.17779 -70.283326
L 132.052878 -69.888382
L 134.927966 -68.968578
L 137.803054 -67.326531
L 140.678142 -66.235037
L 143.55323 -65.607416
L 146.428318 -65.009681
L 149.303406 -64.323007
L 152.178494 -63.293195
L 155.053582 -62.320595
L 157.928671 -61.012795
L 160.803759 -59.674136
L 163.678847 -58.578289
L 166.553935 -57.273956
L 169.429023 -55.85647
L 172.304111 -55.509466
L 175.179199 -55.067694
L 178.054287 -54.541637
L 180.929375 -54.074031
L 183.804463 -53.477792
L 186.679551 -52.867073
L 189.554639 -52.35814
L 192.429727 -51.950994
L 195.304816 -51.645635
L 198.179904 -51.442062
L 201.054992 -51.340275
L 203.93008 -51.340275
L 206.805168 -51.442062
L 209.680256 -51.645635
L 212.555344 -51.950994
L 215.430432 -52.35814
L 218.30552 -52.867073
L 221.180608 -53.477792
L 224.055696 -54.074031
L 226.930784 -54.541637
L 229.805872 -55.067694
L 232.68096 -55.509466
L 235.556049 -55.85647
L 238.431137 -57.273956
L 241.306225 -58.578289
L 244.181313 -59.674136
L 247.056401 -61.012795
L 249.931489 -62.320595
L 252.806577 -63.293195
L 255.681665 -64.323007
L 258.556753 -65.009681
L 261.431841 -65.607416
L 264.306929 -66.235037
L 267.182017 -67.326531
L 270.057105 -68.968578
L 272.932194 -69.888382
L 275.807282 -70.283326
L 278.68237 -70.857629
L 281.557458 -71.45402
L 284.432546 -72.47525
L 287.307634 -73.73647
L 290.182722 -75.058017
L 293.05781 -76.493502
L 295.932898 -77.42274
L 298.807986 -77.8975
L 301.683074 -78.386646
L 304.558162 -78.890179
L 307.43325 -79.408098
L 310.308339 -80.045058
L 313.183427 -80.745404
L 316.058515 -81.211353
L 318.933603 -81.451787
L 321.808691 -81.698231
L 324.683779 -82.166804
L 327.558867 -82.966861
L 330.433955 -83.785523
L 333.309043 -84.730867
L 336.184131 -85.754257
L 339.059219 -86.799895
L 341.934307 -87.867781
L 344.809395 -88.957915
L 344.809395 -411.015975
L 344.809395 -411.015975
L 341.934307 -404.090808
L 339.059219 -397.30697
L 336.184131 -390.664463
L 333.309043 -384.163286
L 330.433955 -377.803438
L 327.558867 -371.584921
L 324.683779 -365.770958
L 321.808691 -360.223276
L 318.933603 -354.807682
L 316.058515 -349.524175
L 313.183427 -344.372757
L 310.308339 -339.353426
L 307.43325 -334.317603
L 304.558162 -329.193559
L 301.683074 -324.228205
L 298.807986 -319.650695
L 295.932898 -315.207818
L 293.05781 -310.853463
L 290.182722 -306.470288
L 287.307634 -302.195681
L 284.432546 -298.107552
L 281.557458 -294.254273
L 278.68237 -290.665348
L 275.807282 -287.464584
L 272.932194 -284.504411
L 270.057105 -281.605146
L 267.182017 -278.826684
L 264.306929 -276.169025
L 261.431841 -273.632168
L 258.556753 -271.216114
L 255.681665 -268.920863
L 252.806577 -266.746415
L 249.931489 -264.692769
L 247.056401 -262.759926
L 244.181313 -260.763709
L 241.306225 -258.659917
L 238.431137 -256.706396
L 235.556049 -256.069148
L 232.68096 -254.907751
L 229.805872 -254.071173
L 226.930784 -253.61003
L 224.055696 -252.975761
L 221.180608 -252.373585
L 218.30552 -251.805729
L 215.430432 -251.104458
L 212.555344 -250.543441
L 209.680256 -250.122678
L 206.805168 -249.84217
L 203.93008 -249.701916
L 201.054992 -249.701916
L 198.179904 -249.84217
L 195.304816 -250.122678
L 192.429727 -250.543441
L 189.554639 -251.104458
L 186.679551 -251.805729
L 183.804463 -252.373585
L 180.929375 -252.975761
L 178.054287 -253.61003
L 175.179199 -254.071173
L 172.304111 -254.907751
L 169.429023 -256.069148
L 166.553935 -256.706396
L 163.678847 -258.659917
L 160.803759 -260.763709
L 157.928671 -262.759926
L 155.053582 -264.692769
L 152.178494 -266.746415
L 149.303406 -268.920863
L 146.428318 -271.216114
L 143.55323 -273.632168
L 140.678142 -276.169025
L 137.803054 -278.826684
L 134.927966 -281.605146
L 132.052878 -284.504411
L 129.17779 -287.464584
L 126.302702 -290.665348
L 123.427614 -294.254273
L 120.552526 -298.107552
L 117.677437 -302.195681
L 114.802349 -306.470288
L 111.927261 -310.853463
L 109.052173 -315.207818
L 106.177085 -319.650695
L 103.301997 -324.228205
L 100.426909 -329.193559
L 97.551821 -334.317603
L 94.676733 -339.353426
L 91.801645 -344.372757
L 88.926557 -349.524175
L 86.051469 -354.807682
L 83.176381 -360.223276
L 80.301293 -365.770958
L 77.426204 -371.584921
L 74.551116 -377.803438
L 71.676028 -384.163286
L 68.80094 -390.664463
L 65.925852 -397.30697
L 63.050764 -404.090808
L 60.175676 -411.015975
z
" id="m60c671b1a0" style="stroke:#000000;stroke-opacity:0.5;"/>
    </defs>
    <g clip-path="url(#p80d0b23320)">
     <use style="fill-opacity:0.5;stroke:#000000;stroke-opacity:0.5;" x="0" xlink:href="#m60c671b1a0" y="432"/>
    </g>
   </g>
   <g id="matplotlib.axis_1">
    <g id="xtick_1">
     <g id="line2d_1">
      <defs>
       <path d="M 0 0
L 0 3.5
" id="m250feaf84a" style="stroke:#000000;stroke-width:0.8;"/>
      </defs>
      <g>
       <use style="stroke:#000000;stroke-width:0.8;" x="60.175676" xlink:href="#m250feaf84a" y="398.64351"/>
      </g>
     </g>
     <g id="text_1">
      <!-- −1.00 -->
      <g transform="translate(44.85302 413.241947)scale(0.1 -0.1)">
       <defs>
        <path d="M 678 2272
L 4684 2272
L 4684 1741
L 678 1741
L 678 2272
z
" id="DejaVuSans-2212" transform="scale(0.015625)"/>
        <path d="M 794 531
L 1825 531
L 1825 4091
L 703 3866
L 703 4441
L 1819 4666
L 2450 4666
L 2450 531
L 3481 531
L 3481 0
L 794 0
L 794 531
z
" id="DejaVuSans-31" transform="scale(0.015625)"/>
        <path d="M 684 794
L 1344 794
L 1344 0
L 684 0
L 684 794
z
" id="DejaVuSans-2e" transform="scale(0.015625)"/>
        <path d="M 2034 4250
Q 1547 4250 1301 3770
Q 1056 3291 1056 2328
Q 1056 1369 1301 889
Q 1547 409 2034 409
Q 2525 409 2770 889
Q 3016 1369 3016 2328
Q 3016 3291 2770 3770
Q 2525 4250 2034 4250
z
M 2034 4750
Q 2819 4750 3233 4129
Q 3647 3509 3647 2328
Q 3647 1150 3233 529
Q 2819 -91 2034 -91
Q 1250 -91 836 529
Q 422 1150 422 2328
Q 422 3509 836 4129
Q 1250 4750 2034 4750
z
" id="DejaVuSans-30" transform="scale(0.015625)"/>
       </defs>
       <use xlink:href="#DejaVuSans-2212"/>
       <use x="83.789062" xlink:href="#DejaVuSans-31"/>
       <use x="147.412109" xlink:href="#DejaVuSans-2e"/>
       <use x="179.199219" xlink:href="#DejaVuSans-30"/>
       <use x="242.822266" xlink:href="#DejaVuSans-30"/>
      </g>
     </g>
    </g>
    <g id="xtick_2">
     <g id="line2d_2">
      <g>
       <use style="stroke:#000000;stroke-width:0.8;" x="95.754891" xlink:href="#m250feaf84a" y="398.64351"/>
      </g>
     </g>
     <g id="text_2">
      <!-- −0.75 -->
      <g transform="translate(80.432235 413.241947)scale(0.1 -0.1)">
       <defs>
        <path d="M 525 4666
L 3525 4666
L 3525 4397
L 1831 0
L 1172 0
L 2766 4134
L 525 4134
L 525 4666
z
" id="DejaVuSans-37" transform="scale(0.015625)"/>
        <path d="M 691 4666
L 3169 4666
L 3169 4134
L 1269 4134
L 1269 2991
Q 1406 3038 1543 3061
Q 1681 3084 1819 3084
Q 2600 3084 3056 2656
Q 3513 2228 3513 1497
Q 3513 744 3044 326
Q 2575 -91 1722 -91
Q 1428 -91 1123 -41
Q 819 9 494 109
L 494 744
Q 775 591 1075 516
Q 1375 441 1709 441
Q 2250 441 2565 725
Q 2881 1009 2881 1497
Q 2881 1984 2565 2268
Q 2250 2553 1709 2553
Q 1456 2553 1204 2497
Q 953 2441 691 2322
L 691 4666
z
" id="DejaVuSans-35" transform="scale(0.015625)"/>
       </defs>
       <use xlink:href="#DejaVuSans-2212"/>
       <use x="83.789062" xlink:href="#DejaVuSans-30"/>
       <use x="147.412109" xlink:href="#DejaVuSans-2e"/>
       <use x="179.199219" xlink:href="#DejaVuSans-37"/>
       <use x="242.822266" xlink:href="#DejaVuSans-35"/>
      </g>
     </g>
    </g>
    <g id="xtick_3">
     <g id="line2d_3">
      <g>
       <use style="stroke:#000000;stroke-width:0.8;" x="131.334106" xlink:href="#m250feaf84a" y="398.64351"/>
      </g>
     </g>
     <g id="text_3">
      <!-- −0.50 -->
      <g transform="translate(116.01145 413.241947)scale(0.1 -0.1)">
       <use xlink:href="#DejaVuSans-2212"/>
       <use x="83.789062" xlink:href="#DejaVuSans-30"/>
       <use x="147.412109" xlink:href="#DejaVuSans-2e"/>
       <use x="179.199219" xlink:href="#DejaVuSans-35"/>
       <use x="242.822266" xlink:href="#DejaVuSans-30"/>
      </g>
     </g>
    </g>
    <g id="xtick_4">
     <g id="line2d_4">
      <g>
       <use style="stroke:#000000;stroke-width:0.8;" x="166.913321" xlink:href="#m250feaf84a" y="398.64351"/>
      </g>
     </g>
     <g id="text_4">
      <!-- −0.25 -->
      <g transform="translate(151.590665 413.241947)scale(0.1 -0.1)">
       <defs>
        <path d="M 1228 531
L 3431 531
L 3431 0
L 469 0
L 469 531
Q 828 903 1448 1529
Q 2069 2156 2228 2338
Q 2531 2678 2651 2914
Q 2772 3150 2772 3378
Q 2772 3750 2511 3984
Q 2250 4219 1831 4219
Q 1534 4219 1204 4116
Q 875 4013 500 3803
L 500 4441
Q 881 4594 1212 4672
Q 1544 4750 1819 4750
Q 2544 4750 2975 4387
Q 3406 4025 3406 3419
Q 3406 3131 3298 2873
Q 3191 2616 2906 2266
Q 2828 2175 2409 1742
Q 1991 1309 1228 531
z
" id="DejaVuSans-32" transform="scale(0.015625)"/>
       </defs>
       <use xlink:href="#DejaVuSans-2212"/>
       <use x="83.789062" xlink:href="#DejaVuSans-30"/>
       <use x="147.412109" xlink:href="#DejaVuSans-2e"/>
       <use x="179.199219" xlink:href="#DejaVuSans-32"/>
       <use x="242.822266" xlink:href="#DejaVuSans-35"/>
      </g>
     </g>
    </g>
    <g id="xtick_5">
     <g id="line2d_5">
      <g>
       <use style="stroke:#000000;stroke-width:0.8;" x="202.492536" xlink:href="#m250feaf84a" y="398.64351"/>
      </g>
     </g>
     <g id="text_5">
      <!-- 0.00 -->
      <g transform="translate(191.359723 413.241947)scale(0.1 -0.1)">
       <use xlink:href="#DejaVuSans-30"/>
       <use x="63.623047" xlink:href="#DejaVuSans-2e"/>
       <use x="95.410156" xlink:href="#DejaVuSans-30"/>
       <use x="159.033203" xlink:href="#DejaVuSans-30"/>
      </g>
     </g>
    </g>
    <g id="xtick_6">
     <g id="line2d_6">
      <g>
       <use style="stroke:#000000;stroke-width:0.8;" x="238.071751" xlink:href="#m250feaf84a" y="398.64351"/>
      </g>
     </g>
     <g id="text_6">
      <!-- 0.25 -->
      <g transform="translate(226.938938 413.241947)scale(0.1 -0.1)">
       <use xlink:href="#DejaVuSans-30"/>
       <use x="63.623047" xlink:href="#DejaVuSans-2e"/>
       <use x="95.410156" xlink:href="#DejaVuSans-32"/>
       <use x="159.033203" xlink:href="#DejaVuSans-35"/>
      </g>
     </g>
    </g>
    <g id="xtick_7">
     <g id="line2d_7">
      <g>
       <use style="stroke:#000000;stroke-width:0.8;" x="273.650966" xlink:href="#m250feaf84a" y="398.64351"/>
      </g>
     </g>
     <g id="text_7">
      <!-- 0.50 -->
      <g transform="translate(262.518153 413.241947)scale(0.1 -0.1)">
       <use xlink:href="#DejaVuSans-30"/>
       <use x="63.623047" xlink:href="#DejaVuSans-2e"/>
       <use x="95.410156" xlink:href="#DejaVuSans-35"/>
       <use x="159.033203" xlink:href="#DejaVuSans-30"/>
      </g>
     </g>
    </g>
    <g id="xtick_8">
     <g id="line2d_8">
      <g>
       <use style="stroke:#000000;stroke-width:0.8;" x="309.230181" xlink:href="#m250feaf84a" y="398.64351"/>
      </g>
     </g>
     <g id="text_8">
      <!-- 0.75 -->
      <g transform="translate(298.097368 413.241947)scale(0.1 -0.1)">
       <use xlink:href="#DejaVuSans-30"/>
       <use x="63.623047" xlink:href="#DejaVuSans-2e"/>
       <use x="95.410156" xlink:href="#DejaVuSans-37"/>
       <use x="159.033203" xlink:href="#DejaVuSans-35"/>
      </g>
     </g>
    </g>
    <g id="xtick_9">
     <g id="line2d_9">
      <g>
       <use style="stroke:#000000;stroke-width:0.8;" x="344.809395" xlink:href="#m250feaf84a" y="398.64351"/>
      </g>
     </g>
     <g id="text_9">
      <!-- 1.00 -->
      <g transform="translate(333.676583 413.241947)scale(0.1 -0.1)">
       <use xlink:href="#DejaVuSans-31"/>
       <use x="63.623047" xlink:href="#DejaVuSans-2e"/>
       <use x="95.410156" xlink:href="#DejaVuSans-30"/>
       <use x="159.033203" xlink:href="#DejaVuSans-30"/>
      </g>
     </g>
    </g>
    <g id="text_10">
     <!-- x -->
     <g transform="translate(199.533161 426.920073)scale(0.1 -0.1)">
      <defs>
       <path d="M 3513 3500
L 2247 1797
L 3578 0
L 2900 0
L 1881 1375
L 863 0
L 184 0
L 1544 1831
L 300 3500
L 978 3500
L 1906 2253
L 2834 3500
L 3513 3500
z
" id="DejaVuSans-78" transform="scale(0.015625)"/>
      </defs>
      <use xlink:href="#DejaVuSans-78"/>
     </g>
    </g>
   </g>
   <g id="matplotlib.axis_2">
    <g id="ytick_1">
     <g id="line2d_10">
      <defs>
       <path d="M 0 0
L -3.5 0
" id="m46e0eb25ac" style="stroke:#000000;stroke-width:0.8;"/>
      </defs>
      <g>
       <use style="stroke:#000000;stroke-width:0.8;" x="45.94399" xlink:href="#m46e0eb25ac" y="386.108287"/>
      </g>
     </g>
     <g id="text_11">
      <!-- 0.00 -->
      <g transform="translate(16.678365 389.907506)scale(0.1 -0.1)">
       <use xlink:href="#DejaVuSans-30"/>
       <use x="63.623047" xlink:href="#DejaVuSans-2e"/>
       <use x="95.410156" xlink:href="#DejaVuSans-30"/>
       <use x="159.033203" xlink:href="#DejaVuSans-30"/>
      </g>
     </g>
    </g>
    <g id="ytick_2">
     <g id="line2d_11">
      <g>
       <use style="stroke:#000000;stroke-width:0.8;" x="45.94399" xlink:href="#m46e0eb25ac" y="333.596034"/>
      </g>
     </g>
     <g id="text_12">
      <!-- 0.25 -->
      <g transform="translate(16.678365 337.395252)scale(0.1 -0.1)">
       <use xlink:href="#DejaVuSans-30"/>
       <use x="63.623047" xlink:href="#DejaVuSans-2e"/>
       <use x="95.410156" xlink:href="#DejaVuSans-32"/>
       <use x="159.033203" xlink:href="#DejaVuSans-35"/>
      </g>
     </g>
    </g>
    <g id="ytick_3">
     <g id="line2d_12">
      <g>
       <use style="stroke:#000000;stroke-width:0.8;" x="45.94399" xlink:href="#m46e0eb25ac" y="281.08378"/>
      </g>
     </g>
     <g id="text_13">
      <!-- 0.50 -->
      <g transform="translate(16.678365 284.882999)scale(0.1 -0.1)">
       <use xlink:href="#DejaVuSans-30"/>
       <use x="63.623047" xlink:href="#DejaVuSans-2e"/>
       <use x="95.410156" xlink:href="#DejaVuSans-35"/>
       <use x="159.033203" xlink:href="#DejaVuSans-30"/>
      </g>
     </g>
    </g>
    <g id="ytick_4">
     <g id="line2d_13">
      <g>
       <use style="stroke:#000000;stroke-width:0.8;" x="45.94399" xlink:href="#m46e0eb25ac" y="228.571527"/>
      </g>
     </g>
     <g id="text_14">
      <!-- 0.75 -->
      <g transform="translate(16.678365 232.370746)scale(0.1 -0.1)">
       <use xlink:href="#DejaVuSans-30"/>
       <use x="63.623047" xlink:href="#DejaVuSans-2e"/>
       <use x="95.410156" xlink:href="#DejaVuSans-37"/>
       <use x="159.033203" xlink:href="#DejaVuSans-35"/>
      </g>
     </g>
    </g>
    <g id="ytick_5">
     <g id="line2d_14">
      <g>
       <use style="stroke:#000000;stroke-width:0.8;" x="45.94399" xlink:href="#m46e0eb25ac" y="176.059273"/>
      </g>
     </g>
     <g id="text_15">
      <!-- 1.00 -->
      <g transform="translate(16.678365 179.858492)scale(0.1 -0.1)">
       <use xlink:href="#DejaVuSans-31"/>
       <use x="63.623047" xlink:href="#DejaVuSans-2e"/>
       <use x="95.410156" xlink:href="#DejaVuSans-30"/>
       <use x="159.033203" xlink:href="#DejaVuSans-30"/>
      </g>
     </g>
    </g>
    <g id="ytick_6">
     <g id="line2d_15">
      <g>
       <use style="stroke:#000000;stroke-width:0.8;" x="45.94399" xlink:href="#m46e0eb25ac" y="123.54702"/>
      </g>
     </g>
     <g id="text_16">
      <!-- 1.25 -->
      <g transform="translate(16.678365 127.346239)scale(0.1 -0.1)">
       <use xlink:href="#DejaVuSans-31"/>
       <use x="63.623047" xlink:href="#DejaVuSans-2e"/>
       <use x="95.410156" xlink:href="#DejaVuSans-32"/>
       <use x="159.033203" xlink:href="#DejaVuSans-35"/>
      </g>
     </g>
    </g>
    <g id="ytick_7">
     <g id="line2d_16">
      <g>
       <use style="stroke:#000000;stroke-width:0.8;" x="45.94399" xlink:href="#m46e0eb25ac" y="71.034767"/>
      </g>
     </g>
     <g id="text_17">
      <!-- 1.50 -->
      <g transform="translate(16.678365 74.833985)scale(0.1 -0.1)">
       <use xlink:href="#DejaVuSans-31"/>
       <use x="63.623047" xlink:href="#DejaVuSans-2e"/>
       <use x="95.410156" xlink:href="#DejaVuSans-35"/>
       <use x="159.033203" xlink:href="#DejaVuSans-30"/>
      </g>
     </g>
    </g>
    <g id="ytick_8">
     <g id="line2d_17">
      <g>
       <use style="stroke:#000000;stroke-width:0.8;" x="45.94399" xlink:href="#m46e0eb25ac" y="18.522513"/>
      </g>
     </g>
     <g id="text_18">
      <!-- 1.75 -->
      <g transform="translate(16.678365 22.321732)scale(0.1 -0.1)">
       <use xlink:href="#DejaVuSans-31"/>
       <use x="63.623047" xlink:href="#DejaVuSans-2e"/>
       <use x="95.410156" xlink:href="#DejaVuSans-37"/>
       <use x="159.033203" xlink:href="#DejaVuSans-35"/>
      </g>
     </g>
    </g>
    <g id="text_19">
     <!-- y -->
     <g transform="translate(10.598677 203.78125)rotate(-90)scale(0.1 -0.1)">
      <defs>
       <path d="M 2059 -325
Q 1816 -950 1584 -1140
Q 1353 -1331 966 -1331
L 506 -1331
L 506 -850
L 844 -850
Q 1081 -850 1212 -737
Q 1344 -625 1503 -206
L 1606 56
L 191 3500
L 800 3500
L 1894 763
L 2988 3500
L 3597 3500
L 2059 -325
z
" id="DejaVuSans-79" transform="scale(0.015625)"/>
      </defs>
      <use xlink:href="#DejaVuSans-79"/>
     </g>
    </g>
   </g>
   <g id="line2d_18">
    <path clip-path="url(#p80d0b23320)" d="M 60.175676 177.700281
L 63.050764 181.851608
L 65.925852 185.918213
L 68.80094 189.900098
L 71.676028 193.797261
L 74.551116 197.609704
L 77.426204 201.337426
L 80.301293 204.980426
L 83.176381 208.538706
L 86.051469 212.012265
L 88.926557 215.401103
L 91.801645 218.70522
L 94.676733 221.924616
L 97.551821 225.059291
L 100.426909 228.109245
L 103.301997 231.074478
L 106.177085 233.95499
L 109.052173 236.750782
L 111.927261 239.461852
L 114.802349 242.088201
L 117.677437 244.62983
L 120.552526 247.086737
L 123.427614 249.458924
L 126.302702 251.746389
L 129.17779 253.949134
L 132.052878 256.067158
L 134.927966 258.100461
L 137.803054 260.049042
L 140.678142 261.912903
L 143.55323 263.692043
L 146.428318 265.386462
L 149.303406 266.99616
L 152.178494 268.521137
L 155.053582 269.961393
L 157.928671 271.316928
L 160.803759 272.587743
L 163.678847 273.773836
L 166.553935 274.875208
L 169.429023 275.89186
L 172.304111 276.82379
L 175.179199 277.670999
L 178.054287 278.433488
L 180.929375 279.111256
L 183.804463 279.704302
L 186.679551 280.212628
L 189.554639 280.636233
L 192.429727 280.975116
L 195.304816 281.229279
L 198.179904 281.398721
L 201.054992 281.483442
L 203.93008 281.483442
L 206.805168 281.398721
L 209.680256 281.229279
L 212.555344 280.975116
L 215.430432 280.636233
L 218.30552 280.212628
L 221.180608 279.704302
L 224.055696 279.111256
L 226.930784 278.433488
L 229.805872 277.670999
L 232.68096 276.82379
L 235.556049 275.89186
L 238.431137 274.875208
L 241.306225 273.773836
L 244.181313 272.587743
L 247.056401 271.316928
L 249.931489 269.961393
L 252.806577 268.521137
L 255.681665 266.99616
L 258.556753 265.386462
L 261.431841 263.692043
L 264.306929 261.912903
L 267.182017 260.049042
L 270.057105 258.100461
L 272.932194 256.067158
L 275.807282 253.949134
L 278.68237 251.746389
L 281.557458 249.458924
L 284.432546 247.086737
L 287.307634 244.62983
L 290.182722 242.088201
L 293.05781 239.461852
L 295.932898 236.750782
L 298.807986 233.95499
L 301.683074 231.074478
L 304.558162 228.109245
L 307.43325 225.059291
L 310.308339 221.924616
L 313.183427 218.70522
L 316.058515 215.401103
L 318.933603 212.012265
L 321.808691 208.538706
L 324.683779 204.980426
L 327.558867 201.337426
L 330.433955 197.609704
L 333.309043 193.797261
L 336.184131 189.900098
L 339.059219 185.918213
L 341.934307 181.851608
L 344.809395 177.700281
" style="fill:none;stroke:#000000;stroke-linecap:square;stroke-width:1.5;"/>
   </g>
   <g id="patch_3">
    <path d="M 45.94399 398.64351
L 45.94399 3.00024
" style="fill:none;stroke:#000000;stroke-linecap:square;stroke-linejoin:miter;stroke-width:0.8;"/>
   </g>
   <g id="patch_4">
    <path d="M 359.041081 398.64351
L 359.041081 3.00024
" style="fill:none;stroke:#000000;stroke-linecap:square;stroke-linejoin:miter;stroke-width:0.8;"/>
   </g>
   <g id="patch_5">
    <path d="M 45.94399 398.64351
L 359.041081 398.64351
" style="fill:none;stroke:#000000;stroke-linecap:square;stroke-linejoin:miter;stroke-width:0.8;"/>
   </g>
   <g id="patch_6">
    <path d="M 45.94399 3.00024
L 359.041081 3.00024
" style="fill:none;stroke:#000000;stroke-linecap:square;stroke-linejoin:miter;stroke-width:0.8;"/>
   </g>
   <g id="legend_1">
    <g id="patch_7">
     <path d="M 126.465973 56.55649
L 278.519098 56.55649
Q 280.519098 56.55649 280.519098 54.55649
L 280.519098 10.00024
Q 280.519098 8.00024 278.519098 8.00024
L 126.465973 8.00024
Q 124.465973 8.00024 124.465973 10.00024
L 124.465973 54.55649
Q 124.465973 56.55649 126.465973 56.55649
z
" style="fill:#ffffff;opacity:0.8;stroke:#cccccc;stroke-linejoin:miter;"/>
    </g>
    <g id="text_20">
     <!-- $y=a+b\cdot x^2$ -->
     <g transform="translate(128.465973 21.10024)scale(0.1 -0.1)">
      <defs>
       <path d="M 1588 -325
Q 1188 -997 936 -1164
Q 684 -1331 294 -1331
L -159 -1331
L -63 -850
L 269 -850
Q 509 -850 678 -719
Q 847 -588 1056 -206
L 1234 128
L 459 3500
L 1069 3500
L 1650 819
L 3256 3500
L 3859 3500
L 1588 -325
z
" id="DejaVuSans-Oblique-79" transform="scale(0.015625)"/>
       <path d="M 678 2906
L 4684 2906
L 4684 2381
L 678 2381
L 678 2906
z
M 678 1631
L 4684 1631
L 4684 1100
L 678 1100
L 678 1631
z
" id="DejaVuSans-3d" transform="scale(0.015625)"/>
       <path d="M 3438 1997
L 3047 0
L 2472 0
L 2578 531
Q 2325 219 2001 64
Q 1678 -91 1281 -91
Q 834 -91 548 182
Q 263 456 263 884
Q 263 1497 752 1853
Q 1241 2209 2100 2209
L 2900 2209
L 2931 2363
Q 2938 2388 2941 2417
Q 2944 2447 2944 2509
Q 2944 2788 2717 2942
Q 2491 3097 2081 3097
Q 1800 3097 1504 3025
Q 1209 2953 897 2809
L 997 3341
Q 1322 3463 1633 3523
Q 1944 3584 2234 3584
Q 2853 3584 3176 3315
Q 3500 3047 3500 2534
Q 3500 2431 3484 2292
Q 3469 2153 3438 1997
z
M 2816 1759
L 2241 1759
Q 1534 1759 1195 1570
Q 856 1381 856 984
Q 856 709 1029 553
Q 1203 397 1509 397
Q 1978 397 2328 733
Q 2678 1069 2791 1631
L 2816 1759
z
" id="DejaVuSans-Oblique-61" transform="scale(0.015625)"/>
       <path d="M 2944 4013
L 2944 2272
L 4684 2272
L 4684 1741
L 2944 1741
L 2944 0
L 2419 0
L 2419 1741
L 678 1741
L 678 2272
L 2419 2272
L 2419 4013
L 2944 4013
z
" id="DejaVuSans-2b" transform="scale(0.015625)"/>
       <path d="M 3169 2138
Q 3169 2591 2961 2847
Q 2753 3103 2388 3103
Q 2122 3103 1889 2973
Q 1656 2844 1484 2597
Q 1303 2338 1198 1995
Q 1094 1653 1094 1313
Q 1094 881 1298 636
Q 1503 391 1863 391
Q 2134 391 2365 517
Q 2597 644 2772 891
Q 2950 1147 3059 1487
Q 3169 1828 3169 2138
z
M 1381 2969
Q 1594 3256 1914 3420
Q 2234 3584 2584 3584
Q 3122 3584 3439 3221
Q 3756 2859 3756 2241
Q 3756 1734 3570 1259
Q 3384 784 3041 416
Q 2816 172 2522 40
Q 2228 -91 1906 -91
Q 1566 -91 1316 65
Q 1066 222 909 531
L 806 0
L 231 0
L 1178 4863
L 1753 4863
L 1381 2969
z
" id="DejaVuSans-Oblique-62" transform="scale(0.015625)"/>
       <path d="M 684 2619
L 1344 2619
L 1344 1825
L 684 1825
L 684 2619
z
" id="DejaVuSans-22c5" transform="scale(0.015625)"/>
       <path d="M 3841 3500
L 2234 1784
L 3219 0
L 2559 0
L 1819 1388
L 531 0
L -166 0
L 1556 1844
L 641 3500
L 1300 3500
L 1972 2234
L 3144 3500
L 3841 3500
z
" id="DejaVuSans-Oblique-78" transform="scale(0.015625)"/>
      </defs>
      <use transform="translate(0 0.765625)" xlink:href="#DejaVuSans-Oblique-79"/>
      <use transform="translate(78.662109 0.765625)" xlink:href="#DejaVuSans-3d"/>
      <use transform="translate(181.933594 0.765625)" xlink:href="#DejaVuSans-Oblique-61"/>
      <use transform="translate(262.695312 0.765625)" xlink:href="#DejaVuSans-2b"/>
      <use transform="translate(365.966797 0.765625)" xlink:href="#DejaVuSans-Oblique-62"/>
      <use transform="translate(448.925781 0.765625)" xlink:href="#DejaVuSans-22c5"/>
      <use transform="translate(500.195312 0.765625)" xlink:href="#DejaVuSans-Oblique-78"/>
      <use transform="translate(563.841146 39.046875)scale(0.7)" xlink:href="#DejaVuSans-32"/>
     </g>
    </g>
    <g id="line2d_19">
     <path d="M 128.465973 32.298677
L 148.465973 32.298677
" style="fill:none;stroke:#000000;stroke-linecap:square;stroke-width:1.5;"/>
    </g>
    <g id="line2d_20"/>
    <g id="text_21">
     <!-- Mean -->
     <g transform="translate(156.465973 35.798677)scale(0.1 -0.1)">
      <defs>
       <path d="M 628 4666
L 1569 4666
L 2759 1491
L 3956 4666
L 4897 4666
L 4897 0
L 4281 0
L 4281 4097
L 3078 897
L 2444 897
L 1241 4097
L 1241 0
L 628 0
L 628 4666
z
" id="DejaVuSans-4d" transform="scale(0.015625)"/>
       <path d="M 3597 1894
L 3597 1613
L 953 1613
Q 991 1019 1311 708
Q 1631 397 2203 397
Q 2534 397 2845 478
Q 3156 559 3463 722
L 3463 178
Q 3153 47 2828 -22
Q 2503 -91 2169 -91
Q 1331 -91 842 396
Q 353 884 353 1716
Q 353 2575 817 3079
Q 1281 3584 2069 3584
Q 2775 3584 3186 3129
Q 3597 2675 3597 1894
z
M 3022 2063
Q 3016 2534 2758 2815
Q 2500 3097 2075 3097
Q 1594 3097 1305 2825
Q 1016 2553 972 2059
L 3022 2063
z
" id="DejaVuSans-65" transform="scale(0.015625)"/>
       <path d="M 2194 1759
Q 1497 1759 1228 1600
Q 959 1441 959 1056
Q 959 750 1161 570
Q 1363 391 1709 391
Q 2188 391 2477 730
Q 2766 1069 2766 1631
L 2766 1759
L 2194 1759
z
M 3341 1997
L 3341 0
L 2766 0
L 2766 531
Q 2569 213 2275 61
Q 1981 -91 1556 -91
Q 1019 -91 701 211
Q 384 513 384 1019
Q 384 1609 779 1909
Q 1175 2209 1959 2209
L 2766 2209
L 2766 2266
Q 2766 2663 2505 2880
Q 2244 3097 1772 3097
Q 1472 3097 1187 3025
Q 903 2953 641 2809
L 641 3341
Q 956 3463 1253 3523
Q 1550 3584 1831 3584
Q 2591 3584 2966 3190
Q 3341 2797 3341 1997
z
" id="DejaVuSans-61" transform="scale(0.015625)"/>
       <path d="M 3513 2113
L 3513 0
L 2938 0
L 2938 2094
Q 2938 2591 2744 2837
Q 2550 3084 2163 3084
Q 1697 3084 1428 2787
Q 1159 2491 1159 1978
L 1159 0
L 581 0
L 581 3500
L 1159 3500
L 1159 2956
Q 1366 3272 1645 3428
Q 1925 3584 2291 3584
Q 2894 3584 3203 3211
Q 3513 2838 3513 2113
z
" id="DejaVuSans-6e" transform="scale(0.015625)"/>
      </defs>
      <use xlink:href="#DejaVuSans-4d"/>
      <use x="86.279297" xlink:href="#DejaVuSans-65"/>
      <use x="147.802734" xlink:href="#DejaVuSans-61"/>
      <use x="209.082031" xlink:href="#DejaVuSans-6e"/>
     </g>
    </g>
    <g id="patch_8">
     <path d="M 128.465973 50.476802
L 148.465973 50.476802
L 148.465973 43.476802
L 128.465973 43.476802
z
" style="opacity:0.5;stroke:#000000;stroke-linejoin:miter;"/>
    </g>
    <g id="text_22">
     <!-- 95 % prediction interval -->
     <g transform="translate(156.465973 50.476802)scale(0.1 -0.1)">
      <defs>
       <path d="M 703 97
L 703 672
Q 941 559 1184 500
Q 1428 441 1663 441
Q 2288 441 2617 861
Q 2947 1281 2994 2138
Q 2813 1869 2534 1725
Q 2256 1581 1919 1581
Q 1219 1581 811 2004
Q 403 2428 403 3163
Q 403 3881 828 4315
Q 1253 4750 1959 4750
Q 2769 4750 3195 4129
Q 3622 3509 3622 2328
Q 3622 1225 3098 567
Q 2575 -91 1691 -91
Q 1453 -91 1209 -44
Q 966 3 703 97
z
M 1959 2075
Q 2384 2075 2632 2365
Q 2881 2656 2881 3163
Q 2881 3666 2632 3958
Q 2384 4250 1959 4250
Q 1534 4250 1286 3958
Q 1038 3666 1038 3163
Q 1038 2656 1286 2365
Q 1534 2075 1959 2075
z
" id="DejaVuSans-39" transform="scale(0.015625)"/>
       <path id="DejaVuSans-20" transform="scale(0.015625)"/>
       <path d="M 4653 2053
Q 4381 2053 4226 1822
Q 4072 1591 4072 1178
Q 4072 772 4226 539
Q 4381 306 4653 306
Q 4919 306 5073 539
Q 5228 772 5228 1178
Q 5228 1588 5073 1820
Q 4919 2053 4653 2053
z
M 4653 2450
Q 5147 2450 5437 2106
Q 5728 1763 5728 1178
Q 5728 594 5436 251
Q 5144 -91 4653 -91
Q 4153 -91 3862 251
Q 3572 594 3572 1178
Q 3572 1766 3864 2108
Q 4156 2450 4653 2450
z
M 1428 4353
Q 1159 4353 1004 4120
Q 850 3888 850 3481
Q 850 3069 1003 2837
Q 1156 2606 1428 2606
Q 1700 2606 1854 2837
Q 2009 3069 2009 3481
Q 2009 3884 1853 4118
Q 1697 4353 1428 4353
z
M 4250 4750
L 4750 4750
L 1831 -91
L 1331 -91
L 4250 4750
z
M 1428 4750
Q 1922 4750 2215 4408
Q 2509 4066 2509 3481
Q 2509 2891 2217 2550
Q 1925 2209 1428 2209
Q 931 2209 642 2551
Q 353 2894 353 3481
Q 353 4063 643 4406
Q 934 4750 1428 4750
z
" id="DejaVuSans-25" transform="scale(0.015625)"/>
       <path d="M 1159 525
L 1159 -1331
L 581 -1331
L 581 3500
L 1159 3500
L 1159 2969
Q 1341 3281 1617 3432
Q 1894 3584 2278 3584
Q 2916 3584 3314 3078
Q 3713 2572 3713 1747
Q 3713 922 3314 415
Q 2916 -91 2278 -91
Q 1894 -91 1617 61
Q 1341 213 1159 525
z
M 3116 1747
Q 3116 2381 2855 2742
Q 2594 3103 2138 3103
Q 1681 3103 1420 2742
Q 1159 2381 1159 1747
Q 1159 1113 1420 752
Q 1681 391 2138 391
Q 2594 391 2855 752
Q 3116 1113 3116 1747
z
" id="DejaVuSans-70" transform="scale(0.015625)"/>
       <path d="M 2631 2963
Q 2534 3019 2420 3045
Q 2306 3072 2169 3072
Q 1681 3072 1420 2755
Q 1159 2438 1159 1844
L 1159 0
L 581 0
L 581 3500
L 1159 3500
L 1159 2956
Q 1341 3275 1631 3429
Q 1922 3584 2338 3584
Q 2397 3584 2469 3576
Q 2541 3569 2628 3553
L 2631 2963
z
" id="DejaVuSans-72" transform="scale(0.015625)"/>
       <path d="M 2906 2969
L 2906 4863
L 3481 4863
L 3481 0
L 2906 0
L 2906 525
Q 2725 213 2448 61
Q 2172 -91 1784 -91
Q 1150 -91 751 415
Q 353 922 353 1747
Q 353 2572 751 3078
Q 1150 3584 1784 3584
Q 2172 3584 2448 3432
Q 2725 3281 2906 2969
z
M 947 1747
Q 947 1113 1208 752
Q 1469 391 1925 391
Q 2381 391 2643 752
Q 2906 1113 2906 1747
Q 2906 2381 2643 2742
Q 2381 3103 1925 3103
Q 1469 3103 1208 2742
Q 947 2381 947 1747
z
" id="DejaVuSans-64" transform="scale(0.015625)"/>
       <path d="M 603 3500
L 1178 3500
L 1178 0
L 603 0
L 603 3500
z
M 603 4863
L 1178 4863
L 1178 4134
L 603 4134
L 603 4863
z
" id="DejaVuSans-69" transform="scale(0.015625)"/>
       <path d="M 3122 3366
L 3122 2828
Q 2878 2963 2633 3030
Q 2388 3097 2138 3097
Q 1578 3097 1268 2742
Q 959 2388 959 1747
Q 959 1106 1268 751
Q 1578 397 2138 397
Q 2388 397 2633 464
Q 2878 531 3122 666
L 3122 134
Q 2881 22 2623 -34
Q 2366 -91 2075 -91
Q 1284 -91 818 406
Q 353 903 353 1747
Q 353 2603 823 3093
Q 1294 3584 2113 3584
Q 2378 3584 2631 3529
Q 2884 3475 3122 3366
z
" id="DejaVuSans-63" transform="scale(0.015625)"/>
       <path d="M 1172 4494
L 1172 3500
L 2356 3500
L 2356 3053
L 1172 3053
L 1172 1153
Q 1172 725 1289 603
Q 1406 481 1766 481
L 2356 481
L 2356 0
L 1766 0
Q 1100 0 847 248
Q 594 497 594 1153
L 594 3053
L 172 3053
L 172 3500
L 594 3500
L 594 4494
L 1172 4494
z
" id="DejaVuSans-74" transform="scale(0.015625)"/>
       <path d="M 1959 3097
Q 1497 3097 1228 2736
Q 959 2375 959 1747
Q 959 1119 1226 758
Q 1494 397 1959 397
Q 2419 397 2687 759
Q 2956 1122 2956 1747
Q 2956 2369 2687 2733
Q 2419 3097 1959 3097
z
M 1959 3584
Q 2709 3584 3137 3096
Q 3566 2609 3566 1747
Q 3566 888 3137 398
Q 2709 -91 1959 -91
Q 1206 -91 779 398
Q 353 888 353 1747
Q 353 2609 779 3096
Q 1206 3584 1959 3584
z
" id="DejaVuSans-6f" transform="scale(0.015625)"/>
       <path d="M 191 3500
L 800 3500
L 1894 563
L 2988 3500
L 3597 3500
L 2284 0
L 1503 0
L 191 3500
z
" id="DejaVuSans-76" transform="scale(0.015625)"/>
       <path d="M 603 4863
L 1178 4863
L 1178 0
L 603 0
L 603 4863
z
" id="DejaVuSans-6c" transform="scale(0.015625)"/>
      </defs>
      <use xlink:href="#DejaVuSans-39"/>
      <use x="63.623047" xlink:href="#DejaVuSans-35"/>
      <use x="127.246094" xlink:href="#DejaVuSans-20"/>
      <use x="159.033203" xlink:href="#DejaVuSans-25"/>
      <use x="254.052734" xlink:href="#DejaVuSans-20"/>
      <use x="285.839844" xlink:href="#DejaVuSans-70"/>
      <use x="349.316406" xlink:href="#DejaVuSans-72"/>
      <use x="388.179688" xlink:href="#DejaVuSans-65"/>
      <use x="449.703125" xlink:href="#DejaVuSans-64"/>
      <use x="513.179688" xlink:href="#DejaVuSans-69"/>
      <use x="540.962891" xlink:href="#DejaVuSans-63"/>
      <use x="595.943359" xlink:href="#DejaVuSans-74"/>
      <use x="635.152344" xlink:href="#DejaVuSans-69"/>
      <use x="662.935547" xlink:href="#DejaVuSans-6f"/>
      <use x="724.117188" xlink:href="#DejaVuSans-6e"/>
      <use x="787.496094" xlink:href="#DejaVuSans-20"/>
      <use x="819.283203" xlink:href="#DejaVuSans-69"/>
      <use x="847.066406" xlink:href="#DejaVuSans-6e"/>
      <use x="910.445312" xlink:href="#DejaVuSans-74"/>
      <use x="949.654297" xlink:href="#DejaVuSans-65"/>
      <use x="1011.177734" xlink:href="#DejaVuSans-72"/>
      <use x="1052.291016" xlink:href="#DejaVuSans-76"/>
      <use x="1111.470703" xlink:href="#DejaVuSans-61"/>
      <use x="1172.75" xlink:href="#DejaVuSans-6c"/>
     </g>
    </g>
   </g>
  </g>
  <g id="axes_2">
   <g id="patch_9">
    <path d="M 367.321419 179.64327
L 680.41851 179.64327
L 680.41851 3.00024
L 367.321419 3.00024
z
" style="fill:#ffffff;"/>
   </g>
   <g id="matplotlib.axis_3">
    <g id="xtick_10">
     <g id="line2d_21">
      <g>
       <use style="stroke:#000000;stroke-width:0.8;" x="381.553105" xlink:href="#m250feaf84a" y="179.64327"/>
      </g>
     </g>
     <g id="text_23">
      <!-- −1.00 -->
      <g transform="translate(366.230448 194.241708)scale(0.1 -0.1)">
       <use xlink:href="#DejaVuSans-2212"/>
       <use x="83.789062" xlink:href="#DejaVuSans-31"/>
       <use x="147.412109" xlink:href="#DejaVuSans-2e"/>
       <use x="179.199219" xlink:href="#DejaVuSans-30"/>
       <use x="242.822266" xlink:href="#DejaVuSans-30"/>
      </g>
     </g>
    </g>
    <g id="xtick_11">
     <g id="line2d_22">
      <g>
       <use style="stroke:#000000;stroke-width:0.8;" x="417.132319" xlink:href="#m250feaf84a" y="179.64327"/>
      </g>
     </g>
     <g id="text_24">
      <!-- −0.75 -->
      <g transform="translate(401.809663 194.241708)scale(0.1 -0.1)">
       <use xlink:href="#DejaVuSans-2212"/>
       <use x="83.789062" xlink:href="#DejaVuSans-30"/>
       <use x="147.412109" xlink:href="#DejaVuSans-2e"/>
       <use x="179.199219" xlink:href="#DejaVuSans-37"/>
       <use x="242.822266" xlink:href="#DejaVuSans-35"/>
      </g>
     </g>
    </g>
    <g id="xtick_12">
     <g id="line2d_23">
      <g>
       <use style="stroke:#000000;stroke-width:0.8;" x="452.711534" xlink:href="#m250feaf84a" y="179.64327"/>
      </g>
     </g>
     <g id="text_25">
      <!-- −0.50 -->
      <g transform="translate(437.388878 194.241708)scale(0.1 -0.1)">
       <use xlink:href="#DejaVuSans-2212"/>
       <use x="83.789062" xlink:href="#DejaVuSans-30"/>
       <use x="147.412109" xlink:href="#DejaVuSans-2e"/>
       <use x="179.199219" xlink:href="#DejaVuSans-35"/>
       <use x="242.822266" xlink:href="#DejaVuSans-30"/>
      </g>
     </g>
    </g>
    <g id="xtick_13">
     <g id="line2d_24">
      <g>
       <use style="stroke:#000000;stroke-width:0.8;" x="488.290749" xlink:href="#m250feaf84a" y="179.64327"/>
      </g>
     </g>
     <g id="text_26">
      <!-- −0.25 -->
      <g transform="translate(472.968093 194.241708)scale(0.1 -0.1)">
       <use xlink:href="#DejaVuSans-2212"/>
       <use x="83.789062" xlink:href="#DejaVuSans-30"/>
       <use x="147.412109" xlink:href="#DejaVuSans-2e"/>
       <use x="179.199219" xlink:href="#DejaVuSans-32"/>
       <use x="242.822266" xlink:href="#DejaVuSans-35"/>
      </g>
     </g>
    </g>
    <g id="xtick_14">
     <g id="line2d_25">
      <g>
       <use style="stroke:#000000;stroke-width:0.8;" x="523.869964" xlink:href="#m250feaf84a" y="179.64327"/>
      </g>
     </g>
     <g id="text_27">
      <!-- 0.00 -->
      <g transform="translate(512.737152 194.241708)scale(0.1 -0.1)">
       <use xlink:href="#DejaVuSans-30"/>
       <use x="63.623047" xlink:href="#DejaVuSans-2e"/>
       <use x="95.410156" xlink:href="#DejaVuSans-30"/>
       <use x="159.033203" xlink:href="#DejaVuSans-30"/>
      </g>
     </g>
    </g>
    <g id="xtick_15">
     <g id="line2d_26">
      <g>
       <use style="stroke:#000000;stroke-width:0.8;" x="559.449179" xlink:href="#m250feaf84a" y="179.64327"/>
      </g>
     </g>
     <g id="text_28">
      <!-- 0.25 -->
      <g transform="translate(548.316367 194.241708)scale(0.1 -0.1)">
       <use xlink:href="#DejaVuSans-30"/>
       <use x="63.623047" xlink:href="#DejaVuSans-2e"/>
       <use x="95.410156" xlink:href="#DejaVuSans-32"/>
       <use x="159.033203" xlink:href="#DejaVuSans-35"/>
      </g>
     </g>
    </g>
    <g id="xtick_16">
     <g id="line2d_27">
      <g>
       <use style="stroke:#000000;stroke-width:0.8;" x="595.028394" xlink:href="#m250feaf84a" y="179.64327"/>
      </g>
     </g>
     <g id="text_29">
      <!-- 0.50 -->
      <g transform="translate(583.895582 194.241708)scale(0.1 -0.1)">
       <use xlink:href="#DejaVuSans-30"/>
       <use x="63.623047" xlink:href="#DejaVuSans-2e"/>
       <use x="95.410156" xlink:href="#DejaVuSans-35"/>
       <use x="159.033203" xlink:href="#DejaVuSans-30"/>
      </g>
     </g>
    </g>
    <g id="xtick_17">
     <g id="line2d_28">
      <g>
       <use style="stroke:#000000;stroke-width:0.8;" x="630.607609" xlink:href="#m250feaf84a" y="179.64327"/>
      </g>
     </g>
     <g id="text_30">
      <!-- 0.75 -->
      <g transform="translate(619.474797 194.241708)scale(0.1 -0.1)">
       <use xlink:href="#DejaVuSans-30"/>
       <use x="63.623047" xlink:href="#DejaVuSans-2e"/>
       <use x="95.410156" xlink:href="#DejaVuSans-37"/>
       <use x="159.033203" xlink:href="#DejaVuSans-35"/>
      </g>
     </g>
    </g>
    <g id="xtick_18">
     <g id="line2d_29">
      <g>
       <use style="stroke:#000000;stroke-width:0.8;" x="666.186824" xlink:href="#m250feaf84a" y="179.64327"/>
      </g>
     </g>
     <g id="text_31">
      <!-- 1.00 -->
      <g transform="translate(655.054012 194.241708)scale(0.1 -0.1)">
       <use xlink:href="#DejaVuSans-31"/>
       <use x="63.623047" xlink:href="#DejaVuSans-2e"/>
       <use x="95.410156" xlink:href="#DejaVuSans-30"/>
       <use x="159.033203" xlink:href="#DejaVuSans-30"/>
      </g>
     </g>
    </g>
    <g id="text_32">
     <!-- x -->
     <g transform="translate(520.910589 207.919833)scale(0.1 -0.1)">
      <use xlink:href="#DejaVuSans-78"/>
     </g>
    </g>
   </g>
   <g id="matplotlib.axis_4">
    <g id="ytick_9">
     <g id="line2d_30">
      <defs>
       <path d="M 0 0
L 3.5 0
" id="mbf979dd9d8" style="stroke:#000000;stroke-width:0.8;"/>
      </defs>
      <g>
       <use style="stroke:#000000;stroke-width:0.8;" x="680.41851" xlink:href="#mbf979dd9d8" y="179.64327"/>
      </g>
     </g>
     <g id="text_33">
      <!-- 0.0 -->
      <g transform="translate(687.41851 183.442489)scale(0.1 -0.1)">
       <use xlink:href="#DejaVuSans-30"/>
       <use x="63.623047" xlink:href="#DejaVuSans-2e"/>
       <use x="95.410156" xlink:href="#DejaVuSans-30"/>
      </g>
     </g>
    </g>
    <g id="ytick_10">
     <g id="line2d_31">
      <g>
       <use style="stroke:#000000;stroke-width:0.8;" x="680.41851" xlink:href="#mbf979dd9d8" y="145.673457"/>
      </g>
     </g>
     <g id="text_34">
      <!-- 0.2 -->
      <g transform="translate(687.41851 149.472675)scale(0.1 -0.1)">
       <use xlink:href="#DejaVuSans-30"/>
       <use x="63.623047" xlink:href="#DejaVuSans-2e"/>
       <use x="95.410156" xlink:href="#DejaVuSans-32"/>
      </g>
     </g>
    </g>
    <g id="ytick_11">
     <g id="line2d_32">
      <g>
       <use style="stroke:#000000;stroke-width:0.8;" x="680.41851" xlink:href="#mbf979dd9d8" y="111.703643"/>
      </g>
     </g>
     <g id="text_35">
      <!-- 0.4 -->
      <g transform="translate(687.41851 115.502862)scale(0.1 -0.1)">
       <defs>
        <path d="M 2419 4116
L 825 1625
L 2419 1625
L 2419 4116
z
M 2253 4666
L 3047 4666
L 3047 1625
L 3713 1625
L 3713 1100
L 3047 1100
L 3047 0
L 2419 0
L 2419 1100
L 313 1100
L 313 1709
L 2253 4666
z
" id="DejaVuSans-34" transform="scale(0.015625)"/>
       </defs>
       <use xlink:href="#DejaVuSans-30"/>
       <use x="63.623047" xlink:href="#DejaVuSans-2e"/>
       <use x="95.410156" xlink:href="#DejaVuSans-34"/>
      </g>
     </g>
    </g>
    <g id="ytick_12">
     <g id="line2d_33">
      <g>
       <use style="stroke:#000000;stroke-width:0.8;" x="680.41851" xlink:href="#mbf979dd9d8" y="77.73383"/>
      </g>
     </g>
     <g id="text_36">
      <!-- 0.6 -->
      <g transform="translate(687.41851 81.533048)scale(0.1 -0.1)">
       <defs>
        <path d="M 2113 2584
Q 1688 2584 1439 2293
Q 1191 2003 1191 1497
Q 1191 994 1439 701
Q 1688 409 2113 409
Q 2538 409 2786 701
Q 3034 994 3034 1497
Q 3034 2003 2786 2293
Q 2538 2584 2113 2584
z
M 3366 4563
L 3366 3988
Q 3128 4100 2886 4159
Q 2644 4219 2406 4219
Q 1781 4219 1451 3797
Q 1122 3375 1075 2522
Q 1259 2794 1537 2939
Q 1816 3084 2150 3084
Q 2853 3084 3261 2657
Q 3669 2231 3669 1497
Q 3669 778 3244 343
Q 2819 -91 2113 -91
Q 1303 -91 875 529
Q 447 1150 447 2328
Q 447 3434 972 4092
Q 1497 4750 2381 4750
Q 2619 4750 2861 4703
Q 3103 4656 3366 4563
z
" id="DejaVuSans-36" transform="scale(0.015625)"/>
       </defs>
       <use xlink:href="#DejaVuSans-30"/>
       <use x="63.623047" xlink:href="#DejaVuSans-2e"/>
       <use x="95.410156" xlink:href="#DejaVuSans-36"/>
      </g>
     </g>
    </g>
    <g id="ytick_13">
     <g id="line2d_34">
      <g>
       <use style="stroke:#000000;stroke-width:0.8;" x="680.41851" xlink:href="#mbf979dd9d8" y="43.764016"/>
      </g>
     </g>
     <g id="text_37">
      <!-- 0.8 -->
      <g transform="translate(687.41851 47.563235)scale(0.1 -0.1)">
       <defs>
        <path d="M 2034 2216
Q 1584 2216 1326 1975
Q 1069 1734 1069 1313
Q 1069 891 1326 650
Q 1584 409 2034 409
Q 2484 409 2743 651
Q 3003 894 3003 1313
Q 3003 1734 2745 1975
Q 2488 2216 2034 2216
z
M 1403 2484
Q 997 2584 770 2862
Q 544 3141 544 3541
Q 544 4100 942 4425
Q 1341 4750 2034 4750
Q 2731 4750 3128 4425
Q 3525 4100 3525 3541
Q 3525 3141 3298 2862
Q 3072 2584 2669 2484
Q 3125 2378 3379 2068
Q 3634 1759 3634 1313
Q 3634 634 3220 271
Q 2806 -91 2034 -91
Q 1263 -91 848 271
Q 434 634 434 1313
Q 434 1759 690 2068
Q 947 2378 1403 2484
z
M 1172 3481
Q 1172 3119 1398 2916
Q 1625 2713 2034 2713
Q 2441 2713 2670 2916
Q 2900 3119 2900 3481
Q 2900 3844 2670 4047
Q 2441 4250 2034 4250
Q 1625 4250 1398 4047
Q 1172 3844 1172 3481
z
" id="DejaVuSans-38" transform="scale(0.015625)"/>
       </defs>
       <use xlink:href="#DejaVuSans-30"/>
       <use x="63.623047" xlink:href="#DejaVuSans-2e"/>
       <use x="95.410156" xlink:href="#DejaVuSans-38"/>
      </g>
     </g>
    </g>
    <g id="ytick_14">
     <g id="line2d_35">
      <g>
       <use style="stroke:#000000;stroke-width:0.8;" x="680.41851" xlink:href="#mbf979dd9d8" y="9.794203"/>
      </g>
     </g>
     <g id="text_38">
      <!-- 1.0 -->
      <g transform="translate(687.41851 13.593421)scale(0.1 -0.1)">
       <use xlink:href="#DejaVuSans-31"/>
       <use x="63.623047" xlink:href="#DejaVuSans-2e"/>
       <use x="95.410156" xlink:href="#DejaVuSans-30"/>
      </g>
     </g>
    </g>
    <g id="text_39">
     <!-- First-order Sobol index -->
     <g transform="translate(714.920072 147.790505)rotate(-90)scale(0.1 -0.1)">
      <defs>
       <path d="M 628 4666
L 3309 4666
L 3309 4134
L 1259 4134
L 1259 2759
L 3109 2759
L 3109 2228
L 1259 2228
L 1259 0
L 628 0
L 628 4666
z
" id="DejaVuSans-46" transform="scale(0.015625)"/>
       <path d="M 2834 3397
L 2834 2853
Q 2591 2978 2328 3040
Q 2066 3103 1784 3103
Q 1356 3103 1142 2972
Q 928 2841 928 2578
Q 928 2378 1081 2264
Q 1234 2150 1697 2047
L 1894 2003
Q 2506 1872 2764 1633
Q 3022 1394 3022 966
Q 3022 478 2636 193
Q 2250 -91 1575 -91
Q 1294 -91 989 -36
Q 684 19 347 128
L 347 722
Q 666 556 975 473
Q 1284 391 1588 391
Q 1994 391 2212 530
Q 2431 669 2431 922
Q 2431 1156 2273 1281
Q 2116 1406 1581 1522
L 1381 1569
Q 847 1681 609 1914
Q 372 2147 372 2553
Q 372 3047 722 3315
Q 1072 3584 1716 3584
Q 2034 3584 2315 3537
Q 2597 3491 2834 3397
z
" id="DejaVuSans-73" transform="scale(0.015625)"/>
       <path d="M 313 2009
L 1997 2009
L 1997 1497
L 313 1497
L 313 2009
z
" id="DejaVuSans-2d" transform="scale(0.015625)"/>
       <path d="M 3425 4513
L 3425 3897
Q 3066 4069 2747 4153
Q 2428 4238 2131 4238
Q 1616 4238 1336 4038
Q 1056 3838 1056 3469
Q 1056 3159 1242 3001
Q 1428 2844 1947 2747
L 2328 2669
Q 3034 2534 3370 2195
Q 3706 1856 3706 1288
Q 3706 609 3251 259
Q 2797 -91 1919 -91
Q 1588 -91 1214 -16
Q 841 59 441 206
L 441 856
Q 825 641 1194 531
Q 1563 422 1919 422
Q 2459 422 2753 634
Q 3047 847 3047 1241
Q 3047 1584 2836 1778
Q 2625 1972 2144 2069
L 1759 2144
Q 1053 2284 737 2584
Q 422 2884 422 3419
Q 422 4038 858 4394
Q 1294 4750 2059 4750
Q 2388 4750 2728 4690
Q 3069 4631 3425 4513
z
" id="DejaVuSans-53" transform="scale(0.015625)"/>
       <path d="M 3116 1747
Q 3116 2381 2855 2742
Q 2594 3103 2138 3103
Q 1681 3103 1420 2742
Q 1159 2381 1159 1747
Q 1159 1113 1420 752
Q 1681 391 2138 391
Q 2594 391 2855 752
Q 3116 1113 3116 1747
z
M 1159 2969
Q 1341 3281 1617 3432
Q 1894 3584 2278 3584
Q 2916 3584 3314 3078
Q 3713 2572 3713 1747
Q 3713 922 3314 415
Q 2916 -91 2278 -91
Q 1894 -91 1617 61
Q 1341 213 1159 525
L 1159 0
L 581 0
L 581 4863
L 1159 4863
L 1159 2969
z
" id="DejaVuSans-62" transform="scale(0.015625)"/>
      </defs>
      <use xlink:href="#DejaVuSans-46"/>
      <use x="50.269531" xlink:href="#DejaVuSans-69"/>
      <use x="78.052734" xlink:href="#DejaVuSans-72"/>
      <use x="119.166016" xlink:href="#DejaVuSans-73"/>
      <use x="171.265625" xlink:href="#DejaVuSans-74"/>
      <use x="210.474609" xlink:href="#DejaVuSans-2d"/>
      <use x="248.433594" xlink:href="#DejaVuSans-6f"/>
      <use x="309.615234" xlink:href="#DejaVuSans-72"/>
      <use x="348.978516" xlink:href="#DejaVuSans-64"/>
      <use x="412.455078" xlink:href="#DejaVuSans-65"/>
      <use x="473.978516" xlink:href="#DejaVuSans-72"/>
      <use x="515.091797" xlink:href="#DejaVuSans-20"/>
      <use x="546.878906" xlink:href="#DejaVuSans-53"/>
      <use x="610.355469" xlink:href="#DejaVuSans-6f"/>
      <use x="671.537109" xlink:href="#DejaVuSans-62"/>
      <use x="735.013672" xlink:href="#DejaVuSans-6f"/>
      <use x="796.195312" xlink:href="#DejaVuSans-6c"/>
      <use x="823.978516" xlink:href="#DejaVuSans-20"/>
      <use x="855.765625" xlink:href="#DejaVuSans-69"/>
      <use x="883.548828" xlink:href="#DejaVuSans-6e"/>
      <use x="946.927734" xlink:href="#DejaVuSans-64"/>
      <use x="1010.404297" xlink:href="#DejaVuSans-65"/>
      <use x="1070.177734" xlink:href="#DejaVuSans-78"/>
     </g>
    </g>
   </g>
   <g id="line2d_36">
    <path clip-path="url(#pa7b009f42f)" d="M 381.553105 94.996553
L 384.428193 91.553841
L 387.303281 88.050794
L 390.178369 84.497378
L 393.053457 80.904674
L 395.928545 77.28481
L 398.803633 73.65086
L 401.678721 70.016711
L 404.553809 66.3969
L 407.428897 62.80642
L 410.303985 59.260507
L 413.179073 55.774397
L 416.054161 52.363081
L 418.92925 49.041045
L 421.804338 45.822023
L 424.679426 42.718753
L 427.554514 39.74276
L 430.429602 36.90416
L 433.30469 34.211511
L 436.179778 31.671691
L 439.054866 29.289822
L 441.929954 27.069248
L 444.805042 25.011539
L 447.68013 23.116551
L 450.555218 21.382514
L 453.430306 19.806151
L 456.305395 18.38283
L 459.180483 17.106724
L 462.055571 15.970988
L 464.930659 14.967943
L 467.805747 14.089258
L 470.680835 13.326126
L 473.555923 12.669436
L 476.431011 12.109925
L 479.306099 11.638326
L 482.181187 11.245493
L 485.056275 10.922512
L 487.931363 10.660797
L 490.806451 10.452175
L 493.68154 10.288946
L 496.556628 10.163943
L 499.431716 10.070571
L 502.306804 10.002841
L 505.181892 9.955393
L 508.05698 9.923517
L 510.932068 9.903161
L 513.807156 9.890943
L 516.682244 9.884153
L 519.557332 9.880757
L 522.43242 9.879398
L 525.307508 9.879398
L 528.182596 9.880757
L 531.057684 9.884153
L 533.932773 9.890943
L 536.807861 9.903161
L 539.682949 9.923517
L 542.558037 9.955393
L 545.433125 10.002841
L 548.308213 10.070571
L 551.183301 10.163943
L 554.058389 10.288946
L 556.933477 10.452175
L 559.808565 10.660797
L 562.683653 10.922512
L 565.558741 11.245493
L 568.433829 11.638326
L 571.308918 12.109925
L 574.184006 12.669436
L 577.059094 13.326126
L 579.934182 14.089258
L 582.80927 14.967943
L 585.684358 15.970988
L 588.559446 17.106724
L 591.434534 18.38283
L 594.309622 19.806151
L 597.18471 21.382514
L 600.059798 23.116551
L 602.934886 25.011539
L 605.809974 27.069248
L 608.685063 29.289822
L 611.560151 31.671691
L 614.435239 34.211511
L 617.310327 36.90416
L 620.185415 39.74276
L 623.060503 42.718753
L 625.935591 45.822023
L 628.810679 49.041045
L 631.685767 52.363081
L 634.560855 55.774397
L 637.435943 59.260507
L 640.311031 62.80642
L 643.186119 66.3969
L 646.061207 70.016711
L 648.936296 73.65086
L 651.811384 77.28481
L 654.686472 80.904674
L 657.56156 84.497378
L 660.436648 88.050794
L 663.311736 91.553841
L 666.186824 94.996553
" style="fill:none;stroke:#000000;stroke-linecap:square;stroke-width:1.5;"/>
   </g>
   <g id="patch_10">
    <path d="M 367.321419 179.64327
L 367.321419 3.00024
" style="fill:none;stroke:#000000;stroke-linecap:square;stroke-linejoin:miter;stroke-width:0.8;"/>
   </g>
   <g id="patch_11">
    <path d="M 680.41851 179.64327
L 680.41851 3.00024
" style="fill:none;stroke:#000000;stroke-linecap:square;stroke-linejoin:miter;stroke-width:0.8;"/>
   </g>
   <g id="patch_12">
    <path d="M 367.321419 179.64327
L 680.41851 179.64327
" style="fill:none;stroke:#000000;stroke-linecap:square;stroke-linejoin:miter;stroke-width:0.8;"/>
   </g>
   <g id="patch_13">
    <path d="M 367.321419 3.00024
L 680.41851 3.00024
" style="fill:none;stroke:#000000;stroke-linecap:square;stroke-linejoin:miter;stroke-width:0.8;"/>
   </g>
   <g id="legend_2">
    <g id="patch_14">
     <path d="M 624.01851 25.678365
L 673.41851 25.678365
Q 675.41851 25.678365 675.41851 23.678365
L 675.41851 10.00024
Q 675.41851 8.00024 673.41851 8.00024
L 624.01851 8.00024
Q 622.01851 8.00024 622.01851 10.00024
L 622.01851 23.678365
Q 622.01851 25.678365 624.01851 25.678365
z
" style="fill:#ffffff;opacity:0.8;stroke:#cccccc;stroke-linejoin:miter;"/>
    </g>
    <g id="line2d_37">
     <path d="M 626.01851 16.098678
L 646.01851 16.098678
" style="fill:none;stroke:#000000;stroke-linecap:square;stroke-width:1.5;"/>
    </g>
    <g id="line2d_38"/>
    <g id="text_40">
     <!-- S1$_\mathregular{a}$ -->
     <g transform="translate(654.01851 19.598678)scale(0.1 -0.1)">
      <use transform="translate(0 0.78125)" xlink:href="#DejaVuSans-53"/>
      <use transform="translate(63.476562 0.78125)" xlink:href="#DejaVuSans-31"/>
      <use transform="translate(128.056641 -15.625)scale(0.7)" xlink:href="#DejaVuSans-61"/>
     </g>
    </g>
   </g>
  </g>
  <g id="axes_3">
   <g id="patch_15">
    <path d="M 367.321419 398.64351
L 680.41851 398.64351
L 680.41851 222.00048
L 367.321419 222.00048
z
" style="fill:#ffffff;"/>
   </g>
   <g id="matplotlib.axis_5">
    <g id="xtick_19">
     <g id="line2d_39">
      <g>
       <use style="stroke:#000000;stroke-width:0.8;" x="381.553105" xlink:href="#m250feaf84a" y="398.64351"/>
      </g>
     </g>
     <g id="text_41">
      <!-- −1.00 -->
      <g transform="translate(366.230448 413.241947)scale(0.1 -0.1)">
       <use xlink:href="#DejaVuSans-2212"/>
       <use x="83.789062" xlink:href="#DejaVuSans-31"/>
       <use x="147.412109" xlink:href="#DejaVuSans-2e"/>
       <use x="179.199219" xlink:href="#DejaVuSans-30"/>
       <use x="242.822266" xlink:href="#DejaVuSans-30"/>
      </g>
     </g>
    </g>
    <g id="xtick_20">
     <g id="line2d_40">
      <g>
       <use style="stroke:#000000;stroke-width:0.8;" x="417.132319" xlink:href="#m250feaf84a" y="398.64351"/>
      </g>
     </g>
     <g id="text_42">
      <!-- −0.75 -->
      <g transform="translate(401.809663 413.241947)scale(0.1 -0.1)">
       <use xlink:href="#DejaVuSans-2212"/>
       <use x="83.789062" xlink:href="#DejaVuSans-30"/>
       <use x="147.412109" xlink:href="#DejaVuSans-2e"/>
       <use x="179.199219" xlink:href="#DejaVuSans-37"/>
       <use x="242.822266" xlink:href="#DejaVuSans-35"/>
      </g>
     </g>
    </g>
    <g id="xtick_21">
     <g id="line2d_41">
      <g>
       <use style="stroke:#000000;stroke-width:0.8;" x="452.711534" xlink:href="#m250feaf84a" y="398.64351"/>
      </g>
     </g>
     <g id="text_43">
      <!-- −0.50 -->
      <g transform="translate(437.388878 413.241947)scale(0.1 -0.1)">
       <use xlink:href="#DejaVuSans-2212"/>
       <use x="83.789062" xlink:href="#DejaVuSans-30"/>
       <use x="147.412109" xlink:href="#DejaVuSans-2e"/>
       <use x="179.199219" xlink:href="#DejaVuSans-35"/>
       <use x="242.822266" xlink:href="#DejaVuSans-30"/>
      </g>
     </g>
    </g>
    <g id="xtick_22">
     <g id="line2d_42">
      <g>
       <use style="stroke:#000000;stroke-width:0.8;" x="488.290749" xlink:href="#m250feaf84a" y="398.64351"/>
      </g>
     </g>
     <g id="text_44">
      <!-- −0.25 -->
      <g transform="translate(472.968093 413.241947)scale(0.1 -0.1)">
       <use xlink:href="#DejaVuSans-2212"/>
       <use x="83.789062" xlink:href="#DejaVuSans-30"/>
       <use x="147.412109" xlink:href="#DejaVuSans-2e"/>
       <use x="179.199219" xlink:href="#DejaVuSans-32"/>
       <use x="242.822266" xlink:href="#DejaVuSans-35"/>
      </g>
     </g>
    </g>
    <g id="xtick_23">
     <g id="line2d_43">
      <g>
       <use style="stroke:#000000;stroke-width:0.8;" x="523.869964" xlink:href="#m250feaf84a" y="398.64351"/>
      </g>
     </g>
     <g id="text_45">
      <!-- 0.00 -->
      <g transform="translate(512.737152 413.241947)scale(0.1 -0.1)">
       <use xlink:href="#DejaVuSans-30"/>
       <use x="63.623047" xlink:href="#DejaVuSans-2e"/>
       <use x="95.410156" xlink:href="#DejaVuSans-30"/>
       <use x="159.033203" xlink:href="#DejaVuSans-30"/>
      </g>
     </g>
    </g>
    <g id="xtick_24">
     <g id="line2d_44">
      <g>
       <use style="stroke:#000000;stroke-width:0.8;" x="559.449179" xlink:href="#m250feaf84a" y="398.64351"/>
      </g>
     </g>
     <g id="text_46">
      <!-- 0.25 -->
      <g transform="translate(548.316367 413.241947)scale(0.1 -0.1)">
       <use xlink:href="#DejaVuSans-30"/>
       <use x="63.623047" xlink:href="#DejaVuSans-2e"/>
       <use x="95.410156" xlink:href="#DejaVuSans-32"/>
       <use x="159.033203" xlink:href="#DejaVuSans-35"/>
      </g>
     </g>
    </g>
    <g id="xtick_25">
     <g id="line2d_45">
      <g>
       <use style="stroke:#000000;stroke-width:0.8;" x="595.028394" xlink:href="#m250feaf84a" y="398.64351"/>
      </g>
     </g>
     <g id="text_47">
      <!-- 0.50 -->
      <g transform="translate(583.895582 413.241947)scale(0.1 -0.1)">
       <use xlink:href="#DejaVuSans-30"/>
       <use x="63.623047" xlink:href="#DejaVuSans-2e"/>
       <use x="95.410156" xlink:href="#DejaVuSans-35"/>
       <use x="159.033203" xlink:href="#DejaVuSans-30"/>
      </g>
     </g>
    </g>
    <g id="xtick_26">
     <g id="line2d_46">
      <g>
       <use style="stroke:#000000;stroke-width:0.8;" x="630.607609" xlink:href="#m250feaf84a" y="398.64351"/>
      </g>
     </g>
     <g id="text_48">
      <!-- 0.75 -->
      <g transform="translate(619.474797 413.241947)scale(0.1 -0.1)">
       <use xlink:href="#DejaVuSans-30"/>
       <use x="63.623047" xlink:href="#DejaVuSans-2e"/>
       <use x="95.410156" xlink:href="#DejaVuSans-37"/>
       <use x="159.033203" xlink:href="#DejaVuSans-35"/>
      </g>
     </g>
    </g>
    <g id="xtick_27">
     <g id="line2d_47">
      <g>
       <use style="stroke:#000000;stroke-width:0.8;" x="666.186824" xlink:href="#m250feaf84a" y="398.64351"/>
      </g>
     </g>
     <g id="text_49">
      <!-- 1.00 -->
      <g transform="translate(655.054012 413.241947)scale(0.1 -0.1)">
       <use xlink:href="#DejaVuSans-31"/>
       <use x="63.623047" xlink:href="#DejaVuSans-2e"/>
       <use x="95.410156" xlink:href="#DejaVuSans-30"/>
       <use x="159.033203" xlink:href="#DejaVuSans-30"/>
      </g>
     </g>
    </g>
    <g id="text_50">
     <!-- x -->
     <g transform="translate(520.910589 426.920073)scale(0.1 -0.1)">
      <use xlink:href="#DejaVuSans-78"/>
     </g>
    </g>
   </g>
   <g id="matplotlib.axis_6">
    <g id="ytick_15">
     <g id="line2d_48">
      <g>
       <use style="stroke:#000000;stroke-width:0.8;" x="680.41851" xlink:href="#mbf979dd9d8" y="398.64351"/>
      </g>
     </g>
     <g id="text_51">
      <!-- 0.0 -->
      <g transform="translate(687.41851 402.442729)scale(0.1 -0.1)">
       <use xlink:href="#DejaVuSans-30"/>
       <use x="63.623047" xlink:href="#DejaVuSans-2e"/>
       <use x="95.410156" xlink:href="#DejaVuSans-30"/>
      </g>
     </g>
    </g>
    <g id="ytick_16">
     <g id="line2d_49">
      <g>
       <use style="stroke:#000000;stroke-width:0.8;" x="680.41851" xlink:href="#mbf979dd9d8" y="364.673697"/>
      </g>
     </g>
     <g id="text_52">
      <!-- 0.2 -->
      <g transform="translate(687.41851 368.472915)scale(0.1 -0.1)">
       <use xlink:href="#DejaVuSans-30"/>
       <use x="63.623047" xlink:href="#DejaVuSans-2e"/>
       <use x="95.410156" xlink:href="#DejaVuSans-32"/>
      </g>
     </g>
    </g>
    <g id="ytick_17">
     <g id="line2d_50">
      <g>
       <use style="stroke:#000000;stroke-width:0.8;" x="680.41851" xlink:href="#mbf979dd9d8" y="330.703883"/>
      </g>
     </g>
     <g id="text_53">
      <!-- 0.4 -->
      <g transform="translate(687.41851 334.503102)scale(0.1 -0.1)">
       <use xlink:href="#DejaVuSans-30"/>
       <use x="63.623047" xlink:href="#DejaVuSans-2e"/>
       <use x="95.410156" xlink:href="#DejaVuSans-34"/>
      </g>
     </g>
    </g>
    <g id="ytick_18">
     <g id="line2d_51">
      <g>
       <use style="stroke:#000000;stroke-width:0.8;" x="680.41851" xlink:href="#mbf979dd9d8" y="296.73407"/>
      </g>
     </g>
     <g id="text_54">
      <!-- 0.6 -->
      <g transform="translate(687.41851 300.533288)scale(0.1 -0.1)">
       <use xlink:href="#DejaVuSans-30"/>
       <use x="63.623047" xlink:href="#DejaVuSans-2e"/>
       <use x="95.410156" xlink:href="#DejaVuSans-36"/>
      </g>
     </g>
    </g>
    <g id="ytick_19">
     <g id="line2d_52">
      <g>
       <use style="stroke:#000000;stroke-width:0.8;" x="680.41851" xlink:href="#mbf979dd9d8" y="262.764256"/>
      </g>
     </g>
     <g id="text_55">
      <!-- 0.8 -->
      <g transform="translate(687.41851 266.563475)scale(0.1 -0.1)">
       <use xlink:href="#DejaVuSans-30"/>
       <use x="63.623047" xlink:href="#DejaVuSans-2e"/>
       <use x="95.410156" xlink:href="#DejaVuSans-38"/>
      </g>
     </g>
    </g>
    <g id="ytick_20">
     <g id="line2d_53">
      <g>
       <use style="stroke:#000000;stroke-width:0.8;" x="680.41851" xlink:href="#mbf979dd9d8" y="228.794443"/>
      </g>
     </g>
     <g id="text_56">
      <!-- 1.0 -->
      <g transform="translate(687.41851 232.593661)scale(0.1 -0.1)">
       <use xlink:href="#DejaVuSans-31"/>
       <use x="63.623047" xlink:href="#DejaVuSans-2e"/>
       <use x="95.410156" xlink:href="#DejaVuSans-30"/>
      </g>
     </g>
    </g>
    <g id="text_57">
     <!-- First-order Sobol index -->
     <g transform="translate(714.920072 366.790745)rotate(-90)scale(0.1 -0.1)">
      <use xlink:href="#DejaVuSans-46"/>
      <use x="50.269531" xlink:href="#DejaVuSans-69"/>
      <use x="78.052734" xlink:href="#DejaVuSans-72"/>
      <use x="119.166016" xlink:href="#DejaVuSans-73"/>
      <use x="171.265625" xlink:href="#DejaVuSans-74"/>
      <use x="210.474609" xlink:href="#DejaVuSans-2d"/>
      <use x="248.433594" xlink:href="#DejaVuSans-6f"/>
      <use x="309.615234" xlink:href="#DejaVuSans-72"/>
      <use x="348.978516" xlink:href="#DejaVuSans-64"/>
      <use x="412.455078" xlink:href="#DejaVuSans-65"/>
      <use x="473.978516" xlink:href="#DejaVuSans-72"/>
      <use x="515.091797" xlink:href="#DejaVuSans-20"/>
      <use x="546.878906" xlink:href="#DejaVuSans-53"/>
      <use x="610.355469" xlink:href="#DejaVuSans-6f"/>
      <use x="671.537109" xlink:href="#DejaVuSans-62"/>
      <use x="735.013672" xlink:href="#DejaVuSans-6f"/>
      <use x="796.195312" xlink:href="#DejaVuSans-6c"/>
      <use x="823.978516" xlink:href="#DejaVuSans-20"/>
      <use x="855.765625" xlink:href="#DejaVuSans-69"/>
      <use x="883.548828" xlink:href="#DejaVuSans-6e"/>
      <use x="946.927734" xlink:href="#DejaVuSans-64"/>
      <use x="1010.404297" xlink:href="#DejaVuSans-65"/>
      <use x="1070.177734" xlink:href="#DejaVuSans-78"/>
     </g>
    </g>
   </g>
   <g id="line2d_54">
    <path clip-path="url(#pcfa7b60e1a)" d="M 381.553105 314.530202
L 384.428193 317.976248
L 387.303281 321.4808
L 390.178369 325.033781
L 393.053457 328.624012
L 395.928545 332.239277
L 398.803633 335.866431
L 401.678721 339.491532
L 404.553809 343.100006
L 407.428897 346.676844
L 410.303985 350.20682
L 413.179073 353.674726
L 416.054161 357.065629
L 418.92925 360.365119
L 421.804338 363.559567
L 424.679426 366.63636
L 427.554514 369.58412
L 430.429602 372.392893
L 433.30469 375.054305
L 436.179778 377.561671
L 439.054866 379.910071
L 441.929954 382.096374
L 444.805042 384.119222
L 447.68013 385.978973
L 450.555218 387.677609
L 453.430306 389.21861
L 456.305395 390.606806
L 459.180483 391.848213
L 462.055571 392.949851
L 464.930659 393.919561
L 467.805747 394.765824
L 470.680835 395.497583
L 473.555923 396.124071
L 476.431011 396.654658
L 479.306099 397.098708
L 482.181187 397.465448
L 485.056275 397.763863
L 487.931363 398.002599
L 490.806451 398.189879
L 493.68154 398.333445
L 496.556628 398.440498
L 499.431716 398.517661
L 502.306804 398.570944
L 505.181892 398.605723
L 508.05698 398.626721
L 510.932068 398.638001
L 513.807156 398.642951
L 516.682244 398.644286
L 519.557332 398.644044
L 522.43242 398.643583
L 525.307508 398.643583
L 528.182596 398.644044
L 531.057684 398.644286
L 533.932773 398.642951
L 536.807861 398.638001
L 539.682949 398.626721
L 542.558037 398.605723
L 545.433125 398.570944
L 548.308213 398.517661
L 551.183301 398.440498
L 554.058389 398.333445
L 556.933477 398.189879
L 559.808565 398.002599
L 562.683653 397.763863
L 565.558741 397.465448
L 568.433829 397.098708
L 571.308918 396.654658
L 574.184006 396.124071
L 577.059094 395.497583
L 579.934182 394.765824
L 582.80927 393.919561
L 585.684358 392.949851
L 588.559446 391.848213
L 591.434534 390.606806
L 594.309622 389.21861
L 597.18471 387.677609
L 600.059798 385.978973
L 602.934886 384.119222
L 605.809974 382.096374
L 608.685063 379.910071
L 611.560151 377.561671
L 614.435239 375.054305
L 617.310327 372.392893
L 620.185415 369.58412
L 623.060503 366.63636
L 625.935591 363.559567
L 628.810679 360.365119
L 631.685767 357.065629
L 634.560855 353.674726
L 637.435943 350.20682
L 640.311031 346.676844
L 643.186119 343.100006
L 646.061207 339.491532
L 648.936296 335.866431
L 651.811384 332.239277
L 654.686472 328.624012
L 657.56156 325.033781
L 660.436648 321.4808
L 663.311736 317.976248
L 666.186824 314.530202
" style="fill:none;stroke:#000000;stroke-linecap:square;stroke-width:1.5;"/>
   </g>
   <g id="patch_16">
    <path d="M 367.321419 398.64351
L 367.321419 222.00048
" style="fill:none;stroke:#000000;stroke-linecap:square;stroke-linejoin:miter;stroke-width:0.8;"/>
   </g>
   <g id="patch_17">
    <path d="M 680.41851 398.64351
L 680.41851 222.00048
" style="fill:none;stroke:#000000;stroke-linecap:square;stroke-linejoin:miter;stroke-width:0.8;"/>
   </g>
   <g id="patch_18">
    <path d="M 367.321419 398.64351
L 680.41851 398.64351
" style="fill:none;stroke:#000000;stroke-linecap:square;stroke-linejoin:miter;stroke-width:0.8;"/>
   </g>
   <g id="patch_19">
    <path d="M 367.321419 222.00048
L 680.41851 222.00048
" style="fill:none;stroke:#000000;stroke-linecap:square;stroke-linejoin:miter;stroke-width:0.8;"/>
   </g>
   <g id="legend_3">
    <g id="patch_20">
     <path d="M 623.81851 244.678605
L 673.41851 244.678605
Q 675.41851 244.678605 675.41851 242.678605
L 675.41851 229.00048
Q 675.41851 227.00048 673.41851 227.00048
L 623.81851 227.00048
Q 621.81851 227.00048 621.81851 229.00048
L 621.81851 242.678605
Q 621.81851 244.678605 623.81851 244.678605
z
" style="fill:#ffffff;opacity:0.8;stroke:#cccccc;stroke-linejoin:miter;"/>
    </g>
    <g id="line2d_55">
     <path d="M 625.81851 235.098917
L 645.81851 235.098917
" style="fill:none;stroke:#000000;stroke-linecap:square;stroke-width:1.5;"/>
    </g>
    <g id="line2d_56"/>
    <g id="text_58">
     <!-- S1$_\mathregular{b}$ -->
     <g transform="translate(653.81851 238.598917)scale(0.1 -0.1)">
      <use transform="translate(0 0.78125)" xlink:href="#DejaVuSans-53"/>
      <use transform="translate(63.476562 0.78125)" xlink:href="#DejaVuSans-31"/>
      <use transform="translate(128.056641 -15.625)scale(0.7)" xlink:href="#DejaVuSans-62"/>
     </g>
    </g>
   </g>
  </g>
 </g>
 <defs>
  <clipPath id="p80d0b23320">
   <rect height="395.64327" width="313.097091" x="45.94399" y="3.00024"/>
  </clipPath>
  <clipPath id="pa7b009f42f">
   <rect height="176.64303" width="313.097091" x="367.321419" y="3.00024"/>
  </clipPath>
  <clipPath id="pcfa7b60e1a">
   <rect height="176.64303" width="313.097091" x="367.321419" y="222.00048"/>
  </clipPath>
 </defs>
</svg>
